<svg width="81" height="68" viewBox="0 0 81 68" fill="none" xmlns="http://www.w3.org/2000/svg">
<path d="M26.3873 56.4603C41.4636 69.7413 57.3447 59.6967 74.4217 55.6308C71.6816 51.7479 69.6545 49.8056 64.882 46.9206C68.8108 43.6059 71.5861 41.9298 78.1546 39.4548C74.4291 38.1589 72.3404 37.4324 68.6149 36.1366C76.1527 24.562 79.1513 17.5228 78.1546 2.12554C61.102 1.36294 53.5612 3.94994 43.314 13.3243L36.6777 5.85846C36.6777 12.4948 35.848 16.6425 35.0185 22.0345C31.6759 18.9231 29.6897 15.3708 24.2345 13.3243C22.9902 24.5231 10.1324 41.1139 25.479 55.6308C25.7814 55.9169 26.0842 56.1933 26.3873 56.4603ZM26.3873 56.4603C23.3193 59.2254 14.28 65.0046 2.6665 66" stroke="#4E5C3C" stroke-width="4" stroke-linecap="round" stroke-linejoin="round"/>
<path d="M33.7744 48.8689L41.655 39.9234M64.4673 14.0283L41.655 39.9234M41.655 39.9234H57.4163M41.655 39.9234L40.4107 24.8123" stroke="#4E5C3C" stroke-width="4" stroke-linecap="round" stroke-linejoin="round"/>
</svg>
