<svg width="95" height="68" viewBox="0 0 95 68" fill="none" xmlns="http://www.w3.org/2000/svg">
<path d="M2 34.6621C10.0605 46.9718 12.1221 53.8882 12.1602 66H86.8155C86.035 53.7922 87.5607 46.8235 93 34.2207C84.5825 39.1961 81.2259 43.2653 76.2136 51.4345C75.9402 37.4661 77.2166 29.3376 82.3981 14.3586C70.9501 25.1781 68.2854 33.4818 66.9369 50.1103C63.5155 36.2671 61.0829 29.5711 50.5922 23.6276C54.6358 33.6994 53.8917 39.2302 48.8252 48.7862C40.5222 34.2817 41.0422 23.9821 50.5922 2C37.6876 15.836 33.7355 25.1628 31.1553 43.931C24.8329 22.3381 18.0169 16.7775 7.30097 8.62069C17.3358 26.9522 20.5526 37.7138 20.5534 58.0552C14.9359 44.7077 10.8553 39.6332 2 34.6621Z" stroke="#4E5C3C" stroke-width="4" stroke-linecap="round" stroke-linejoin="round"/>
</svg>
