<?xml version="1.0" encoding="UTF-8"?>
<svg id="Layer_2" data-name="Layer 2" xmlns="http://www.w3.org/2000/svg" viewBox="0 0 317.14 236.18" width="144">
  <defs>
    <style>
      .cls-1 {
        fill: #4e5c3c;
        stroke-width: 0px;
      }
    </style>
  </defs>
  <g id="Layer_4" data-name="Layer 4">
    <g>
      <g>
        <polygon class="cls-1" points="218.19 84.07 218.19 64.21 196.68 56.35 196.68 77.86 218.19 84.07"/>
        <polygon class="cls-1" points="196.73 111.61 218.14 114.31 218.14 95.99 196.73 91.02 196.73 111.61"/>
        <path class="cls-1" d="M271.62,142.07c-1.25-1.88-3.53-3.68-6.71-5.39,2.88-3.86,4.94-14.14,4.94-26.26,0-15.42-3.33-27.91-7.44-27.91s-7.44,12.5-7.44,27.91c0,9.76,1.34,18.33,3.36,23.32-2.98-1.13-6.38-2.2-10.16-3.21v-65.1c3.11.59,5.29-3.76,2.3-5.8l-3.37-2.31L164.9.44c-.82-.57-1.89-.59-2.73-.06l-90.46,56.96s0,0,0,0l-1.16.73-2.75,1.7c-3.21,1.99-.68,6.84,2.75,5.44v64.9c-3.77.96-7.2,1.99-10.24,3.07,1.84-5.08,3.04-13.24,3.04-22.47,0-15.42-3.33-27.91-7.44-27.91s-7.44,12.5-7.44,27.91c0,11.46,1.84,21.29,4.48,25.59-3.55,1.82-6.09,3.75-7.43,5.76-.62.93.17,2.15,1.24,1.95,23.81-4.51,64.99-7.5,111.82-7.5s88.01,2.98,111.82,7.5c1.07.2,1.85-1.03,1.24-1.95ZM229.31,56.38c3.87,2.23,6.61,5.94,6.95,10.06l.13,54h0c-.12,4.21-4.12,6.67-8.92,5.81h.04c-16.08-2.56-35.5-4.26-56.65-4.73l-.15-94.33,58.6,29.2ZM155.64,121.39c-8.7.05-17.15.3-25.27.73v-32.52l-21.47,4.41v29.75c-7.14.73-13.85,1.61-20.07,2.63-3.22-.1-5.79-1.77-6.53-4.48l-.13-55.14c.46-4.24,3.44-8,7.56-10.13l19.18-8.59v27.26l21.47-4.74v-32.13l25.11-11.25.15,94.21Z"/>
      </g>
      <g>
        <path class="cls-1" d="M0,203.39v-31.37h4.49v13.44h5.55v-13.44h4.49v31.37h-4.49v-13.96h-5.55v13.96H0Z"/>
        <path class="cls-1" d="M22.91,179.42c0-1.26.22-2.38.66-3.35.44-.97,1.03-1.78,1.76-2.42.71-.62,1.51-1.09,2.4-1.41.9-.32,1.8-.49,2.71-.49s1.82.16,2.71.49,1.71.79,2.45,1.41c.7.65,1.28,1.46,1.72,2.42.44.97.66,2.09.66,3.35v16.56c0,1.32-.22,2.45-.66,3.39s-1.01,1.72-1.72,2.34c-.74.65-1.55,1.13-2.45,1.45s-1.8.49-2.71.49-1.81-.16-2.71-.49c-.89-.32-1.69-.81-2.4-1.45-.73-.62-1.32-1.4-1.76-2.34-.44-.94-.66-2.07-.66-3.39v-16.56ZM27.4,195.98c0,1.09.3,1.89.9,2.4s1.31.77,2.14.77,1.53-.26,2.14-.77.9-1.31.9-2.4v-16.56c0-1.09-.3-1.89-.9-2.4-.6-.51-1.31-.77-2.14-.77s-1.53.26-2.14.77c-.6.52-.9,1.32-.9,2.4v16.56Z"/>
        <path class="cls-1" d="M46.08,179.42c0-1.26.22-2.38.66-3.35.44-.97,1.03-1.78,1.76-2.42.7-.62,1.5-1.09,2.4-1.41.89-.32,1.8-.49,2.71-.49s1.81.16,2.71.49c.89.32,1.71.79,2.44,1.41.7.65,1.28,1.46,1.72,2.42.44.97.66,2.09.66,3.35v16.56c0,1.32-.22,2.45-.66,3.39-.44.94-1.01,1.72-1.72,2.34-.74.65-1.55,1.13-2.44,1.45-.9.32-1.8.49-2.71.49s-1.82-.16-2.71-.49c-.9-.32-1.7-.81-2.4-1.45-.74-.62-1.32-1.4-1.76-2.34s-.66-2.07-.66-3.39v-16.56ZM50.57,195.98c0,1.09.3,1.89.9,2.4s1.31.77,2.14.77,1.53-.26,2.14-.77.9-1.31.9-2.4v-16.56c0-1.09-.3-1.89-.9-2.4-.6-.51-1.31-.77-2.14-.77s-1.53.26-2.14.77c-.6.52-.9,1.32-.9,2.4v16.56Z"/>
        <path class="cls-1" d="M83.97,172.02l-6.43,31.37h-3.96l-6.39-31.37h4.76l3.57,21.9h.09l3.61-21.9h4.76Z"/>
        <path class="cls-1" d="M91.06,203.39v-31.37h13.39v4.23h-8.9v9.21h7.75v4.23h-7.75v9.21h8.9v4.49h-13.39Z"/>
        <path class="cls-1" d="M111.76,203.39v-31.37h7.23c5.28,0,7.93,3.07,7.93,9.21,0,1.85-.28,3.42-.86,4.71s-1.58,2.34-3.02,3.13l4.85,14.32h-4.76l-4.19-13.39h-2.69v13.39h-4.49ZM116.26,176.25v9.78h2.56c.79,0,1.42-.11,1.89-.33.47-.22.84-.54,1.1-.95.23-.41.4-.92.49-1.52.09-.6.13-1.3.13-2.09s-.04-1.49-.13-2.09c-.09-.6-.27-1.12-.53-1.56-.56-.82-1.62-1.23-3.17-1.23h-2.34Z"/>
        <path class="cls-1" d="M147.53,203.39v-31.37h6.56c1.44,0,2.67.22,3.68.66s1.84,1.03,2.49,1.76c.65.73,1.1,1.58,1.39,2.53.28.95.42,1.95.42,2.97v1.14c0,.85-.06,1.57-.2,2.16s-.33,1.1-.59,1.54c-.5.82-1.27,1.53-2.29,2.11,1.06.5,1.84,1.24,2.34,2.2.5.97.75,2.29.75,3.97v1.76c0,2.76-.66,4.88-2,6.34-1.34,1.47-3.48,2.2-6.41,2.2h-6.12ZM152.02,176.25v8.64h2.03c1.5,0,2.5-.38,3.02-1.12.52-.75.77-1.84.77-3.28s-.29-2.47-.86-3.17-1.61-1.06-3.11-1.06h-1.85ZM152.02,188.85v10.05h1.94c.91,0,1.62-.13,2.14-.4.51-.27.9-.63,1.17-1.1.26-.47.43-1.03.48-1.67s.09-1.35.09-2.12-.05-1.48-.13-2.07-.26-1.09-.53-1.5c-.29-.41-.69-.71-1.19-.9-.5-.19-1.16-.29-1.98-.29h-1.98Z"/>
        <path class="cls-1" d="M170.71,203.39v-31.37h7.23c5.28,0,7.93,3.07,7.93,9.21,0,1.85-.28,3.42-.86,4.71s-1.58,2.34-3.02,3.13l4.85,14.32h-4.76l-4.19-13.39h-2.69v13.39h-4.49ZM175.2,176.25v9.78h2.56c.79,0,1.42-.11,1.89-.33.47-.22.84-.54,1.1-.95.23-.41.4-.92.49-1.52.09-.6.13-1.3.13-2.09s-.04-1.49-.13-2.09c-.09-.6-.27-1.12-.53-1.56-.56-.82-1.62-1.23-3.17-1.23h-2.34Z"/>
        <path class="cls-1" d="M193.61,179.42c0-1.26.22-2.38.66-3.35.44-.97,1.03-1.78,1.76-2.42.71-.62,1.51-1.09,2.4-1.41.9-.32,1.8-.49,2.71-.49s1.82.16,2.71.49,1.71.79,2.45,1.41c.7.65,1.28,1.46,1.72,2.42.44.97.66,2.09.66,3.35v16.56c0,1.32-.22,2.45-.66,3.39s-1.01,1.72-1.72,2.34c-.74.65-1.55,1.13-2.45,1.45s-1.8.49-2.71.49-1.81-.16-2.71-.49c-.89-.32-1.69-.81-2.4-1.45-.73-.62-1.32-1.4-1.76-2.34-.44-.94-.66-2.07-.66-3.39v-16.56ZM198.1,195.98c0,1.09.3,1.89.9,2.4s1.31.77,2.14.77,1.53-.26,2.14-.77.9-1.31.9-2.4v-16.56c0-1.09-.3-1.89-.9-2.4-.6-.51-1.31-.77-2.14-.77s-1.53.26-2.14.77c-.6.52-.9,1.32-.9,2.4v16.56Z"/>
        <path class="cls-1" d="M219.47,203.39v-27.14h-5.2v-4.23h14.89v4.23h-5.2v27.14h-4.49Z"/>
        <path class="cls-1" d="M235.55,203.39v-31.37h4.49v13.44h5.55v-13.44h4.49v31.37h-4.49v-13.96h-5.55v13.96h-4.49Z"/>
        <path class="cls-1" d="M258.72,203.39v-31.37h13.39v4.23h-8.9v9.21h7.75v4.23h-7.75v9.21h8.9v4.49h-13.39Z"/>
        <path class="cls-1" d="M279.43,203.39v-31.37h7.23c5.28,0,7.93,3.07,7.93,9.21,0,1.85-.28,3.42-.86,4.71s-1.58,2.34-3.02,3.13l4.85,14.32h-4.76l-4.19-13.39h-2.69v13.39h-4.49ZM283.92,176.25v9.78h2.56c.79,0,1.42-.11,1.89-.33.47-.22.84-.54,1.1-.95.23-.41.4-.92.49-1.52.09-.6.13-1.3.13-2.09s-.04-1.49-.13-2.09c-.09-.6-.27-1.12-.53-1.56-.56-.82-1.62-1.23-3.17-1.23h-2.34Z"/>
        <path class="cls-1" d="M317.14,181.05h-4.49v-1.01c0-1.03-.24-1.92-.73-2.66-.49-.75-1.3-1.12-2.45-1.12-.62,0-1.11.12-1.5.35-.38.24-.69.53-.93.88-.23.38-.4.81-.48,1.3-.09.48-.13.99-.13,1.52,0,.62.02,1.13.07,1.54s.15.78.33,1.1c.18.32.43.6.77.84.33.23.8.47,1.39.71l3.44,1.36c1,.38,1.81.83,2.42,1.34s1.1,1.11,1.45,1.79c.32.71.54,1.51.66,2.4.12.9.18,1.92.18,3.06,0,1.32-.13,2.55-.4,3.68-.26,1.13-.69,2.09-1.28,2.89-.62.82-1.42,1.47-2.42,1.94-1,.47-2.22.71-3.66.71-1.09,0-2.1-.19-3.04-.57s-1.75-.91-2.42-1.59c-.67-.67-1.21-1.46-1.61-2.36-.4-.89-.6-1.87-.6-2.93v-1.68h4.49v1.41c0,.82.24,1.56.73,2.23.49.66,1.3.99,2.45.99.76,0,1.36-.11,1.78-.33s.76-.54.99-.95c.24-.41.38-.9.42-1.47.04-.57.07-1.21.07-1.92,0-.82-.03-1.5-.09-2.03-.06-.53-.17-.95-.35-1.28-.21-.32-.48-.59-.82-.79-.33-.21-.78-.43-1.34-.66l-3.22-1.32c-1.94-.79-3.24-1.84-3.9-3.15-.66-1.3-.99-2.94-.99-4.91,0-1.17.16-2.29.49-3.35.32-1.06.81-1.97,1.45-2.73.62-.76,1.4-1.37,2.36-1.83.96-.46,2.09-.68,3.41-.68,1.12,0,2.14.21,3.06.62.92.41,1.73.95,2.4,1.63,1.35,1.41,2.03,3.03,2.03,4.84v2.2Z"/>
        <path class="cls-1" d="M19.65,216.63h5.39c.97,0,1.85.1,2.63.31.79.21,1.47.52,2.04.94.56.42,1,.95,1.3,1.59.31.64.46,1.39.46,2.25s-.16,1.61-.47,2.25c-.32.64-.76,1.17-1.32,1.59-.56.42-1.25.74-2.05.96s-1.68.32-2.65.32h-3.39v8.86h-1.94v-19.06ZM21.59,225.19h3.28c1.52,0,2.68-.3,3.47-.89.79-.59,1.19-1.45,1.19-2.58s-.41-2.05-1.22-2.6-1.96-.82-3.43-.82h-3.28v6.89Z"/>
        <path class="cls-1" d="M38.55,235.69h-1.94v-19.06h5.6c.93,0,1.8.09,2.6.27s1.49.47,2.07.87,1.04.93,1.36,1.58c.33.65.49,1.44.49,2.37,0,.7-.13,1.34-.38,1.91-.25.57-.59,1.07-1.02,1.49s-.94.76-1.53,1.01c-.59.25-1.24.41-1.94.49l5.57,9.07h-2.37l-5.27-8.91h-3.23v8.91ZM38.55,225.11h3.37c1.56,0,2.76-.28,3.6-.85.85-.56,1.27-1.41,1.27-2.54,0-.63-.11-1.16-.35-1.59-.23-.43-.56-.78-.97-1.05s-.91-.47-1.51-.59c-.59-.12-1.25-.19-1.96-.19h-3.45v6.81Z"/>
        <path class="cls-1" d="M72.92,226.16c0,1.45-.25,2.79-.76,4.01s-1.2,2.28-2.09,3.16c-.88.89-1.94,1.58-3.15,2.09-1.21.5-2.52.76-3.94.76s-2.73-.25-3.94-.76c-1.21-.5-2.26-1.2-3.15-2.09-.89-.89-1.58-1.94-2.08-3.16s-.76-2.56-.76-4.01.25-2.79.76-4.01c.5-1.22,1.2-2.28,2.08-3.16.89-.89,1.94-1.58,3.15-2.09,1.21-.5,2.53-.76,3.94-.76s2.73.25,3.94.76c1.21.5,2.27,1.2,3.15,2.09.89.89,1.59,1.94,2.09,3.16.5,1.22.76,2.56.76,4.01ZM70.88,226.18c0-1.11-.18-2.17-.54-3.17s-.88-1.89-1.56-2.65c-.68-.76-1.51-1.37-2.49-1.82-.98-.45-2.07-.67-3.3-.67s-2.32.22-3.3.67c-.98.45-1.81,1.05-2.49,1.82-.68.76-1.2,1.64-1.56,2.65s-.54,2.06-.54,3.17.18,2.17.54,3.17.88,1.88,1.56,2.63c.68.75,1.52,1.35,2.49,1.8.98.45,2.08.67,3.3.67s2.32-.22,3.3-.67c.98-.45,1.81-1.05,2.49-1.8s1.2-1.63,1.56-2.63.54-2.06.54-3.17Z"/>
        <path class="cls-1" d="M78.31,216.63h5.39c.97,0,1.85.1,2.63.31.79.21,1.47.52,2.04.94.56.42,1,.95,1.3,1.59.31.64.46,1.39.46,2.25s-.16,1.61-.47,2.25c-.32.64-.76,1.17-1.32,1.59-.56.42-1.25.74-2.05.96s-1.68.32-2.65.32h-3.39v8.86h-1.94v-19.06ZM80.25,225.19h3.28c1.52,0,2.68-.3,3.47-.89.79-.59,1.19-1.45,1.19-2.58s-.41-2.05-1.22-2.6-1.96-.82-3.43-.82h-3.28v6.89Z"/>
        <path class="cls-1" d="M97.21,233.97h10.2v1.72h-12.14v-19.06h11.82v1.72h-9.88v6.54h9.23v1.72h-9.23v7.35Z"/>
        <path class="cls-1" d="M114.49,235.69h-1.94v-19.06h5.6c.93,0,1.8.09,2.6.27.8.18,1.49.47,2.07.87s1.04.93,1.36,1.58c.32.65.48,1.44.48,2.37,0,.7-.12,1.34-.38,1.91-.25.57-.59,1.07-1.02,1.49s-.94.76-1.53,1.01c-.59.25-1.24.41-1.94.49l5.57,9.07h-2.37l-5.28-8.91h-3.23v8.91ZM114.49,225.11h3.37c1.56,0,2.76-.28,3.61-.85.84-.56,1.27-1.41,1.27-2.54,0-.63-.12-1.16-.35-1.59-.23-.43-.55-.78-.97-1.05-.42-.27-.92-.47-1.51-.59-.59-.12-1.25-.19-1.96-.19h-3.45v6.81Z"/>
        <path class="cls-1" d="M135.81,235.69h-1.94v-17.34h-6.38v-1.72h14.7v1.72h-6.38v17.34Z"/>
        <path class="cls-1" d="M152.61,235.69h-1.94v-8.21l-7.13-10.85h2.42l5.73,9.24,5.79-9.24h2.26l-7.13,10.85v8.21Z"/>
        <path class="cls-1" d="M180.28,219.7c-.41-.57-.94-1.03-1.59-1.39-.65-.35-1.43-.53-2.34-.53-.47,0-.94.07-1.43.22-.48.14-.92.36-1.32.66-.39.29-.71.67-.96,1.12-.24.45-.36.98-.36,1.59s.12,1.11.35,1.51c.23.4.54.73.93,1.01.38.28.82.51,1.31.69s1.01.36,1.54.54c.66.22,1.33.45,2,.7.67.25,1.27.58,1.81.98.54.4.98.92,1.31,1.53s.51,1.41.51,2.36-.18,1.77-.54,2.46-.84,1.26-1.41,1.71-1.24.78-1.98,1c-.75.22-1.5.32-2.25.32-.57,0-1.15-.06-1.72-.17-.57-.12-1.12-.29-1.64-.53-.52-.23-1-.53-1.45-.89s-.84-.77-1.19-1.24l1.67-1.24c.41.68.99,1.25,1.74,1.71.75.46,1.62.69,2.62.69.48,0,.98-.07,1.48-.23s.96-.39,1.36-.7c.41-.32.74-.7.99-1.16.26-.46.39-.99.39-1.6,0-.66-.13-1.21-.39-1.66-.26-.44-.6-.81-1.03-1.1s-.93-.54-1.48-.74c-.56-.2-1.14-.39-1.75-.59-.63-.2-1.25-.42-1.86-.67-.61-.25-1.16-.58-1.64-.98-.49-.4-.87-.9-1.17-1.49s-.44-1.32-.44-2.18c0-.92.18-1.71.55-2.37.37-.66.85-1.21,1.44-1.64.59-.43,1.25-.74,1.97-.94.72-.2,1.42-.3,2.13-.3,1.29,0,2.39.23,3.31.69.92.46,1.61,1,2.07,1.63l-1.53,1.24Z"/>
        <path class="cls-1" d="M189.52,233.97h10.2v1.72h-12.14v-19.06h11.82v1.72h-9.88v6.54h9.23v1.72h-9.23v7.35Z"/>
        <path class="cls-1" d="M206.8,235.69h-1.94v-19.06h5.6c.93,0,1.8.09,2.6.27.8.18,1.49.47,2.07.87s1.04.93,1.36,1.58c.32.65.48,1.44.48,2.37,0,.7-.12,1.34-.38,1.91-.25.57-.59,1.07-1.02,1.49s-.94.76-1.53,1.01c-.59.25-1.24.41-1.94.49l5.57,9.07h-2.37l-5.28-8.91h-3.23v8.91ZM206.8,225.11h3.37c1.56,0,2.76-.28,3.61-.85.84-.56,1.27-1.41,1.27-2.54,0-.63-.12-1.16-.35-1.59-.23-.43-.55-.78-.97-1.05-.42-.27-.92-.47-1.51-.59-.59-.12-1.25-.19-1.96-.19h-3.45v6.81Z"/>
        <path class="cls-1" d="M227.85,233.19h.06l6.19-16.56h2.07l-7.3,19.06h-2.05l-7.27-19.06h2.1l6.19,16.56Z"/>
        <path class="cls-1" d="M242.07,235.69h-1.94v-19.06h1.94v19.06Z"/>
        <path class="cls-1" d="M264.52,232.6c-.32.48-.71.94-1.17,1.37-.45.43-.98.81-1.59,1.14-.6.33-1.27.59-1.99.78-.73.19-1.52.29-2.38.29-1.44,0-2.76-.25-3.99-.76-1.22-.5-2.27-1.2-3.15-2.09-.88-.89-1.56-1.94-2.06-3.16-.5-1.22-.74-2.56-.74-4.01s.25-2.79.75-4.01c.5-1.22,1.2-2.28,2.09-3.16.89-.89,1.94-1.58,3.15-2.09,1.21-.5,2.52-.76,3.94-.76.7,0,1.39.07,2.06.22.67.15,1.3.35,1.9.61.59.27,1.13.58,1.62.95.48.37.89.79,1.21,1.25l-1.62,1.19c-.2-.31-.46-.61-.79-.92s-.72-.57-1.17-.81-.94-.42-1.47-.57c-.53-.14-1.1-.22-1.71-.22-1.24,0-2.34.22-3.32.67s-1.81,1.05-2.49,1.81-1.2,1.64-1.56,2.64-.54,2.06-.54,3.17.18,2.16.55,3.16c.37,1,.89,1.88,1.58,2.64.68.76,1.51,1.36,2.49,1.81.98.45,2.07.67,3.29.67,1.09,0,2.14-.22,3.13-.67.98-.45,1.81-1.17,2.48-2.15l1.51.97Z"/>
        <path class="cls-1" d="M271.14,233.97h10.2v1.72h-12.14v-19.06h11.82v1.72h-9.88v6.54h9.23v1.72h-9.23v7.35Z"/>
        <path class="cls-1" d="M295.72,219.7c-.41-.57-.94-1.03-1.59-1.39-.65-.35-1.42-.53-2.34-.53-.47,0-.94.07-1.42.22-.49.14-.93.36-1.32.66-.4.29-.72.67-.96,1.12-.24.45-.36.98-.36,1.59s.11,1.11.35,1.51c.23.4.54.73.92,1.01.39.28.83.51,1.32.69s1,.36,1.54.54c.66.22,1.33.45,2,.7s1.28.58,1.81.98c.54.4.98.92,1.31,1.53.34.62.51,1.41.51,2.36s-.18,1.77-.54,2.46-.83,1.26-1.41,1.71c-.58.45-1.24.78-1.99,1-.75.22-1.5.32-2.25.32-.57,0-1.15-.06-1.73-.17-.57-.12-1.12-.29-1.64-.53-.52-.23-1.01-.53-1.45-.89-.45-.36-.85-.77-1.19-1.24l1.67-1.24c.41.68.99,1.25,1.74,1.71.75.46,1.62.69,2.62.69.49,0,.98-.07,1.48-.23s.96-.39,1.36-.7c.4-.32.74-.7.99-1.16.26-.46.39-.99.39-1.6,0-.66-.13-1.21-.39-1.66-.26-.44-.61-.81-1.04-1.1s-.92-.54-1.48-.74c-.55-.2-1.14-.39-1.75-.59-.63-.2-1.25-.42-1.85-.67-.61-.25-1.16-.58-1.64-.98-.48-.4-.87-.9-1.17-1.49s-.44-1.32-.44-2.18c0-.92.19-1.71.55-2.37.37-.66.85-1.21,1.44-1.64.59-.43,1.25-.74,1.96-.94.72-.2,1.43-.3,2.13-.3,1.29,0,2.39.23,3.31.69s1.61,1,2.07,1.63l-1.53,1.24Z"/>
      </g>
    </g>
  </g>
</svg>