<svg width="144" height="115" viewBox="0 0 144 115" fill="none" xmlns="http://www.w3.org/2000/svg">
<g clip-path="url(#clip0_561_714)">
<path d="M0 98.9472V83.5952H2.18911V90.174H4.89302V83.5952H7.08213V98.9472H4.89302V92.1123H2.18911V98.9472H0Z" fill="#4E5C3C"/>
<path d="M11.1621 87.2156C11.1621 86.5969 11.268 86.0507 11.4845 85.577C11.701 85.1032 11.9848 84.7069 12.3409 84.3927C12.6825 84.093 13.0722 83.861 13.51 83.7015C13.9478 83.5419 14.3856 83.4646 14.8283 83.4646C15.2709 83.4646 15.7135 83.5419 16.1465 83.7015C16.5844 83.861 16.9789 84.0882 17.3397 84.3927C17.6813 84.7117 17.9604 85.1032 18.1769 85.577C18.3934 86.0507 18.4992 86.5969 18.4992 87.2156V95.3218C18.4992 95.9695 18.3934 96.5254 18.1769 96.9846C17.9604 97.4438 17.6813 97.8257 17.3397 98.1254C16.9789 98.4396 16.5844 98.6764 16.1465 98.836C15.7087 98.9955 15.2709 99.0728 14.8283 99.0728C14.3856 99.0728 13.943 98.9955 13.51 98.836C13.077 98.6764 12.6825 98.4396 12.3409 98.1254C11.9848 97.8257 11.6962 97.4438 11.4845 96.9846C11.268 96.5254 11.1621 95.9695 11.1621 95.3218V87.2156ZM13.3512 95.3218C13.3512 95.8535 13.4956 96.2451 13.789 96.4964C14.0825 96.7478 14.4289 96.8735 14.8283 96.8735C15.2276 96.8735 15.574 96.7478 15.8675 96.4964C16.161 96.2451 16.3053 95.8535 16.3053 95.3218V87.2156C16.3053 86.6839 16.161 86.2924 15.8675 86.041C15.574 85.7896 15.2276 85.664 14.8283 85.664C14.4289 85.664 14.0825 85.7896 13.789 86.041C13.4956 86.2924 13.3512 86.6839 13.3512 87.2156V95.3218Z" fill="#4E5C3C"/>
<path d="M22.4492 87.2156C22.4492 86.5969 22.5551 86.0507 22.7716 85.577C22.9881 85.1032 23.2719 84.7069 23.628 84.3927C23.9696 84.093 24.3593 83.861 24.7971 83.7015C25.2349 83.5419 25.6727 83.4646 26.1154 83.4646C26.558 83.4646 27.0006 83.5419 27.4337 83.7015C27.8715 83.861 28.266 84.0882 28.6268 84.3927C28.9684 84.7117 29.2475 85.1032 29.464 85.577C29.6805 86.0507 29.7863 86.5969 29.7863 87.2156V95.3218C29.7863 95.9695 29.6805 96.5254 29.464 96.9846C29.2475 97.4438 28.9684 97.8257 28.6268 98.1254C28.266 98.4396 27.8715 98.6764 27.4337 98.836C26.9958 98.9955 26.558 99.0728 26.1154 99.0728C25.6727 99.0728 25.2301 98.9955 24.7971 98.836C24.3641 98.6764 23.9696 98.4396 23.628 98.1254C23.2719 97.8257 22.9833 97.4438 22.7716 96.9846C22.5551 96.5254 22.4492 95.9695 22.4492 95.3218V87.2156ZM24.6383 95.3218C24.6383 95.8535 24.7827 96.2451 25.0761 96.4964C25.3696 96.7478 25.716 96.8735 26.1154 96.8735C26.5147 96.8735 26.8611 96.7478 27.1546 96.4964C27.4481 96.2451 27.5924 95.8535 27.5924 95.3218V87.2156C27.5924 86.6839 27.4481 86.2924 27.1546 86.041C26.8611 85.7896 26.5147 85.664 26.1154 85.664C25.716 85.664 25.3696 85.7896 25.0761 86.041C24.7827 86.2924 24.6383 86.6839 24.6383 87.2156V95.3218Z" fill="#4E5C3C"/>
<path d="M40.9098 83.5903L37.7777 98.9424H35.8436L32.7307 83.5903H35.0497L36.7866 94.3068H36.8299L38.5908 83.5903H40.9098Z" fill="#4E5C3C"/>
<path d="M44.3643 98.9472V83.5952H50.8883V85.6641H46.5534V90.1691H50.3302V92.238H46.5534V96.743H50.8883V98.9424H44.3643V98.9472Z" fill="#4E5C3C"/>
<path d="M54.4534 98.9472V83.5952H57.9752C60.5492 83.5952 61.8386 85.0985 61.8386 88.1051C61.8386 89.009 61.6991 89.7776 61.42 90.4108C61.141 91.044 60.6502 91.5516 59.9478 91.9431L62.3101 98.9521H59.9911L57.9511 92.3975H56.6425V98.9521H54.4534V98.9472ZM56.6425 85.6641V90.4495H57.8886C58.2735 90.4495 58.5814 90.3963 58.8123 90.29C59.0433 90.1788 59.2213 90.0289 59.3512 89.8259C59.4667 89.6229 59.5436 89.3764 59.5869 89.0815C59.6302 88.7867 59.6495 88.4483 59.6495 88.0568C59.6495 87.6652 59.6302 87.3269 59.5869 87.032C59.5436 86.7372 59.457 86.481 59.332 86.2683C59.0577 85.8671 58.5429 85.6641 57.7875 85.6641H56.6521H56.6425Z" fill="#4E5C3C"/>
<path d="M71.8798 98.9472V83.5952H75.0793C75.7817 83.5952 76.3783 83.7064 76.8691 83.9191C77.3598 84.1318 77.7687 84.4218 78.0815 84.7795C78.3942 85.1372 78.6203 85.5529 78.7551 86.0218C78.8898 86.4906 78.9571 86.974 78.9571 87.4767V88.0374C78.9571 88.4531 78.9234 88.806 78.8609 89.096C78.7984 89.3861 78.7021 89.6326 78.5722 89.8501C78.3269 90.2513 77.9564 90.5993 77.456 90.8845C77.9708 91.131 78.3509 91.4887 78.5915 91.9625C78.8368 92.4362 78.9571 93.0839 78.9571 93.9056V94.766C78.9571 96.1195 78.63 97.1539 77.9804 97.8693C77.3261 98.5895 76.2869 98.9472 74.858 98.9472H71.875H71.8798ZM74.0689 85.6641V89.8888H75.0552C75.7865 89.8888 76.2725 89.7051 76.5226 89.3377C76.7728 88.9704 76.8979 88.4338 76.8979 87.7281C76.8979 87.0224 76.7584 86.5196 76.4793 86.1764C76.2003 85.8332 75.6951 85.6592 74.9686 85.6592H74.0689V85.6641ZM74.0689 91.8319V96.7479H75.0119C75.4546 96.7479 75.801 96.685 76.0511 96.5545C76.3013 96.424 76.489 96.2452 76.6189 96.0131C76.7488 95.786 76.8258 95.5104 76.8546 95.1962C76.8835 94.882 76.8979 94.534 76.8979 94.1618C76.8979 93.7896 76.8739 93.4367 76.8354 93.1467C76.7921 92.8567 76.7055 92.615 76.5756 92.412C76.4312 92.209 76.2388 92.064 75.9982 91.9721C75.7529 91.8803 75.4305 91.8319 75.0312 91.8319H74.0641H74.0689Z" fill="#4E5C3C"/>
<path d="M83.1716 98.9472V83.5952H86.6935C89.2675 83.5952 90.5569 85.0985 90.5569 88.1051C90.5569 89.009 90.4173 89.7776 90.1383 90.4108C89.8592 91.044 89.3685 91.5516 88.6661 91.9431L91.0284 98.9521H88.7094L86.6694 92.3975H85.3607V98.9521H83.1716V98.9472ZM85.3607 85.6641V90.4495H86.6068C86.9917 90.4495 87.2997 90.3963 87.5306 90.29C87.7615 90.1788 87.9396 90.0289 88.0695 89.8259C88.1849 89.6229 88.2619 89.3764 88.3052 89.0815C88.3485 88.7867 88.3678 88.4483 88.3678 88.0568C88.3678 87.6652 88.3485 87.3269 88.3052 87.032C88.2619 86.7372 88.1753 86.481 88.0502 86.2683C87.776 85.8671 87.2612 85.6641 86.5058 85.6641H85.3704H85.3607Z" fill="#4E5C3C"/>
<path d="M94.3337 87.2156C94.3337 86.5969 94.4396 86.0507 94.6561 85.577C94.8726 85.1032 95.1565 84.7069 95.5125 84.3927C95.8541 84.093 96.2438 83.861 96.6816 83.7015C97.1194 83.5419 97.5573 83.4646 97.9999 83.4646C98.4425 83.4646 98.8852 83.5419 99.3182 83.7015C99.756 83.861 100.151 84.0882 100.511 84.3927C100.853 84.7117 101.132 85.1032 101.349 85.577C101.565 86.0507 101.671 86.5969 101.671 87.2156V95.3218C101.671 95.9695 101.565 96.5254 101.349 96.9846C101.132 97.4438 100.853 97.8257 100.511 98.1254C100.151 98.4396 99.756 98.6764 99.3182 98.836C98.8803 98.9955 98.4425 99.0728 97.9999 99.0728C97.5573 99.0728 97.1146 98.9955 96.6816 98.836C96.2486 98.6764 95.8541 98.4396 95.5125 98.1254C95.1565 97.8257 94.8678 97.4438 94.6561 96.9846C94.4396 96.5254 94.3337 95.9695 94.3337 95.3218V87.2156ZM96.5228 95.3218C96.5228 95.8535 96.6672 96.2451 96.9607 96.4964C97.2542 96.7478 97.6006 96.8735 97.9999 96.8735C98.3992 96.8735 98.7456 96.7478 99.0391 96.4964C99.3326 96.2451 99.4769 95.8535 99.4769 95.3218V87.2156C99.4769 86.6839 99.3326 86.2924 99.0391 86.041C98.7456 85.7896 98.3992 85.664 97.9999 85.664C97.6006 85.664 97.2542 85.7896 96.9607 86.041C96.6672 86.2924 96.5228 86.6839 96.5228 87.2156V95.3218Z" fill="#4E5C3C"/>
<path d="M106.934 98.9472V85.6641H104.404V83.5952H111.659V85.6641H109.128V98.9472H106.939H106.934Z" fill="#4E5C3C"/>
<path d="M114.767 98.9472V83.5952H116.956V90.174H119.66V83.5952H121.849V98.9472H119.66V92.1123H116.956V98.9472H114.767Z" fill="#4E5C3C"/>
<path d="M126.054 98.9472V83.5952H132.578V85.6641H128.243V90.1691H132.02V92.238H128.243V96.743H132.578V98.9424H126.054V98.9472Z" fill="#4E5C3C"/>
<path d="M136.143 98.9472V83.5952H139.665C142.239 83.5952 143.529 85.0985 143.529 88.1051C143.529 89.009 143.389 89.7776 143.11 90.4108C142.831 91.044 142.34 91.5516 141.638 91.9431L144 98.9521H141.681L139.641 92.3975H138.332V98.9521H136.143V98.9472ZM138.332 85.6641V90.4495H139.579C139.963 90.4495 140.271 90.3963 140.502 90.29C140.733 90.1788 140.911 90.0289 141.041 89.8259C141.157 89.6229 141.234 89.3764 141.277 89.0815C141.32 88.7867 141.339 88.4483 141.339 88.0568C141.339 87.6652 141.32 87.3269 141.277 87.032C141.234 86.7372 141.147 86.481 141.022 86.2683C140.748 85.8671 140.233 85.6641 139.477 85.6641H138.342H138.332Z" fill="#4E5C3C"/>
<path d="M4.14251 105.429H6.76463C7.23613 105.429 7.66432 105.478 8.04922 105.579C8.43412 105.681 8.7661 105.835 9.04034 106.038C9.31458 106.246 9.52627 106.502 9.67542 106.816C9.82457 107.131 9.89673 107.498 9.89673 107.919C9.89673 108.339 9.81975 108.706 9.66579 109.021C9.51184 109.33 9.30014 109.591 9.02109 109.799C8.74685 110.007 8.41488 110.161 8.02517 110.268C7.63546 110.374 7.20726 110.427 6.73095 110.427H5.0807V114.763H4.1377V105.434L4.14251 105.429ZM5.08551 109.62H6.68765C7.42857 109.62 7.9963 109.475 8.3812 109.185C8.7661 108.895 8.95854 108.474 8.95854 107.919C8.95854 107.363 8.76128 106.913 8.36195 106.647C7.96262 106.381 7.40933 106.246 6.68765 106.246H5.08551V109.62Z" fill="#4E5C3C"/>
<path d="M13.3463 114.758H12.4033V105.429H15.1313C15.5835 105.429 16.0069 105.473 16.3966 105.56C16.7863 105.647 17.1231 105.792 17.407 105.99C17.6909 106.188 17.9122 106.444 18.0709 106.763C18.2297 107.078 18.3067 107.464 18.3067 107.923C18.3067 108.267 18.2441 108.576 18.1239 108.861C18.0036 109.142 17.8352 109.388 17.6235 109.591C17.4118 109.794 17.1664 109.963 16.8778 110.084C16.5891 110.21 16.2764 110.287 15.9348 110.321L18.6483 114.763H17.4936L14.9244 110.403H13.3511V114.763L13.3463 114.758ZM13.3463 109.581H14.9869C15.7471 109.581 16.3341 109.441 16.743 109.166C17.152 108.89 17.3589 108.474 17.3589 107.919C17.3589 107.609 17.3011 107.353 17.1857 107.14C17.0702 106.928 16.9163 106.758 16.7142 106.628C16.5121 106.497 16.2667 106.401 15.9781 106.338C15.6894 106.275 15.3718 106.246 15.0206 106.246H13.3415V109.581H13.3463Z" fill="#4E5C3C"/>
<path d="M30.099 110.094C30.099 110.804 29.9739 111.457 29.7334 112.056C29.4928 112.656 29.1512 113.168 28.7182 113.603C28.2852 114.038 27.7752 114.377 27.1834 114.623C26.5916 114.87 25.9518 114.99 25.2637 114.99C24.5757 114.99 23.931 114.87 23.3441 114.623C22.7523 114.377 22.2423 114.038 21.8093 113.603C21.3763 113.168 21.0395 112.651 20.7941 112.056C20.5487 111.462 20.4285 110.804 20.4285 110.094C20.4285 109.383 20.5487 108.726 20.7941 108.131C21.0395 107.537 21.3763 107.02 21.8093 106.585C22.2423 106.15 22.7523 105.811 23.3441 105.565C23.9359 105.318 24.5757 105.197 25.2637 105.197C25.9518 105.197 26.5965 105.323 27.1834 105.565C27.7704 105.806 28.2852 106.15 28.7182 106.585C29.1512 107.02 29.488 107.537 29.7334 108.131C29.9788 108.731 30.099 109.383 30.099 110.094ZM29.1031 110.099C29.1031 109.552 29.0165 109.035 28.8385 108.547C28.6653 108.054 28.4103 107.624 28.0783 107.252C27.7463 106.879 27.3422 106.585 26.8659 106.362C26.3896 106.145 25.8555 106.034 25.2589 106.034C24.6623 106.034 24.1283 106.145 23.652 106.362C23.1757 106.585 22.7715 106.879 22.4396 107.252C22.1076 107.624 21.8526 108.054 21.6794 108.547C21.5062 109.04 21.4196 109.557 21.4196 110.099C21.4196 110.64 21.5062 111.162 21.6794 111.65C21.8526 112.143 22.1076 112.569 22.4396 112.941C22.7715 113.308 23.1757 113.603 23.652 113.821C24.1283 114.038 24.6623 114.149 25.2589 114.149C25.8555 114.149 26.3896 114.038 26.8659 113.821C27.3422 113.598 27.7463 113.308 28.0783 112.941C28.4103 112.574 28.6653 112.143 28.8385 111.65C29.0117 111.157 29.1031 110.64 29.1031 110.099Z" fill="#4E5C3C"/>
<path d="M32.7211 105.429H35.3432C35.8147 105.429 36.2429 105.478 36.6278 105.579C37.0127 105.681 37.3447 105.835 37.6189 106.038C37.8932 106.246 38.1049 106.502 38.254 106.816C38.4032 107.131 38.4753 107.498 38.4753 107.919C38.4753 108.339 38.3984 108.706 38.2444 109.021C38.0904 109.33 37.8788 109.591 37.5997 109.799C37.3255 110.007 36.9935 110.161 36.6038 110.268C36.2141 110.374 35.7859 110.427 35.3096 110.427H33.6593V114.763H32.7163V105.434L32.7211 105.429ZM33.6641 109.62H35.2663C36.0072 109.62 36.5749 109.475 36.9598 109.185C37.3447 108.895 37.5372 108.474 37.5372 107.919C37.5372 107.363 37.3399 106.913 36.9406 106.647C36.5412 106.381 35.9879 106.246 35.2663 106.246H33.6641V109.62Z" fill="#4E5C3C"/>
<path d="M41.9297 113.917H46.8997V114.763H40.9819V105.434H46.741V106.28H41.9249V109.48H46.4234V110.326H41.9249V113.922L41.9297 113.917Z" fill="#4E5C3C"/>
<path d="M50.3495 114.758H49.4065V105.429H52.1345C52.5867 105.429 53.0101 105.473 53.3998 105.56C53.7895 105.647 54.1263 105.792 54.4102 105.99C54.694 106.188 54.9153 106.444 55.0741 106.763C55.2329 107.078 55.3099 107.464 55.3099 107.923C55.3099 108.267 55.2473 108.576 55.127 108.861C55.0068 109.142 54.8384 109.388 54.6267 109.591C54.415 109.794 54.1696 109.963 53.8809 110.084C53.5923 110.21 53.2795 110.287 52.9379 110.321L55.6515 114.763H54.4968L51.9276 110.403H50.3543V114.763L50.3495 114.758ZM50.3495 109.581H51.9901C52.7503 109.581 53.3373 109.441 53.7462 109.166C54.1552 108.89 54.3621 108.474 54.3621 107.919C54.3621 107.609 54.3043 107.353 54.1889 107.14C54.0734 106.928 53.9194 106.758 53.7174 106.628C53.5153 106.497 53.2699 106.401 52.9812 106.338C52.6926 106.275 52.375 106.246 52.0238 106.246H50.3447V109.581H50.3495Z" fill="#4E5C3C"/>
<path d="M60.7368 114.758H59.7938V106.27H56.6858V105.424H63.8497V106.27H60.7417V114.758H60.7368Z" fill="#4E5C3C"/>
<path d="M68.9209 114.758H67.9778V110.737L64.5042 105.424H65.6829L68.4782 109.944L71.2976 105.424H72.3994L68.9257 110.737V114.758H68.9209Z" fill="#4E5C3C"/>
<path d="M82.4066 106.933C82.2045 106.652 81.9495 106.425 81.632 106.256C81.3144 106.087 80.9392 106 80.4917 106C80.2656 106 80.0346 106.038 79.7989 106.106C79.5631 106.174 79.3466 106.285 79.1542 106.43C78.9617 106.575 78.8078 106.759 78.6875 106.976C78.5672 107.194 78.5095 107.455 78.5095 107.754C78.5095 108.054 78.5672 108.3 78.6779 108.489C78.7885 108.682 78.9425 108.847 79.1301 108.982C79.3178 109.117 79.5343 109.229 79.77 109.316C80.0058 109.403 80.2608 109.49 80.5206 109.577C80.8429 109.683 81.1701 109.799 81.4973 109.92C81.8244 110.041 82.1179 110.205 82.3777 110.398C82.6375 110.592 82.854 110.848 83.0176 111.148C83.186 111.452 83.2678 111.834 83.2678 112.303C83.2678 112.772 83.1812 113.173 83.0032 113.511C82.8252 113.85 82.599 114.13 82.3152 114.348C82.0313 114.57 81.709 114.729 81.3481 114.836C80.9825 114.942 80.6168 114.995 80.2512 114.995C79.9721 114.995 79.6931 114.966 79.4092 114.908C79.1301 114.85 78.8607 114.763 78.6105 114.652C78.3555 114.536 78.1198 114.391 77.9033 114.217C77.682 114.043 77.4943 113.84 77.3259 113.613L78.139 113.009C78.3411 113.342 78.6201 113.622 78.9858 113.845C79.3515 114.067 79.7748 114.178 80.2656 114.178C80.5013 114.178 80.7419 114.14 80.9873 114.067C81.2326 113.995 81.454 113.879 81.6512 113.724C81.8485 113.569 82.0121 113.381 82.1372 113.158C82.2622 112.936 82.3296 112.675 82.3296 112.375C82.3296 112.051 82.2671 111.781 82.1372 111.563C82.0121 111.351 81.8437 111.167 81.632 111.022C81.4203 110.877 81.1797 110.756 80.9103 110.659C80.6409 110.563 80.357 110.466 80.0587 110.369C79.7508 110.273 79.4525 110.161 79.1542 110.041C78.8559 109.92 78.5913 109.755 78.3555 109.562C78.1198 109.369 77.9273 109.122 77.783 108.832C77.6387 108.542 77.5665 108.184 77.5665 107.764C77.5665 107.314 77.6579 106.928 77.8359 106.604C78.0139 106.28 78.2497 106.009 78.5384 105.797C78.827 105.584 79.1446 105.434 79.4958 105.337C79.847 105.241 80.1886 105.192 80.5302 105.192C81.1605 105.192 81.6993 105.304 82.142 105.531C82.5894 105.753 82.9262 106.019 83.1523 106.328L82.4066 106.933Z" fill="#4E5C3C"/>
<path d="M86.9051 113.917H91.8751V114.763H85.9573V105.434H91.7163V106.28H86.9003V109.48H91.3988V110.326H86.9003V113.922L86.9051 113.917Z" fill="#4E5C3C"/>
<path d="M95.3248 114.758H94.3818V105.429H97.1098C97.5621 105.429 97.9854 105.473 98.3752 105.56C98.7649 105.647 99.1017 105.792 99.3855 105.99C99.6694 106.188 99.8907 106.444 100.049 106.763C100.208 107.078 100.285 107.464 100.285 107.923C100.285 108.267 100.223 108.576 100.102 108.861C99.9821 109.142 99.8137 109.388 99.602 109.591C99.3903 109.794 99.145 109.963 98.8563 110.084C98.5676 110.21 98.2549 110.287 97.9133 110.321L100.627 114.763H99.4721L96.9029 110.403H95.3296V114.763L95.3248 114.758ZM95.3248 109.581H96.9655C97.7256 109.581 98.3126 109.441 98.7216 109.166C99.1305 108.89 99.3374 108.474 99.3374 107.919C99.3374 107.609 99.2797 107.353 99.1642 107.14C99.0487 106.928 98.8948 106.758 98.6927 106.628C98.4906 106.497 98.2453 106.401 97.9566 106.338C97.6679 106.275 97.3504 106.246 96.9991 106.246H95.32V109.581H95.3248Z" fill="#4E5C3C"/>
<path d="M105.582 113.535H105.611L108.628 105.429H109.638L106.083 114.758H105.087L101.546 105.429H102.57L105.587 113.535H105.582Z" fill="#4E5C3C"/>
<path d="M112.511 114.758H111.568V105.429H112.511V114.758Z" fill="#4E5C3C"/>
<path d="M123.451 113.245C123.292 113.482 123.105 113.704 122.879 113.917C122.657 114.13 122.398 114.314 122.104 114.473C121.811 114.633 121.488 114.758 121.132 114.855C120.776 114.947 120.391 114.995 119.973 114.995C119.275 114.995 118.626 114.874 118.034 114.628C117.437 114.381 116.927 114.043 116.499 113.608C116.071 113.173 115.734 112.656 115.498 112.061C115.258 111.462 115.137 110.809 115.137 110.099C115.137 109.388 115.258 108.731 115.503 108.136C115.748 107.541 116.085 107.024 116.518 106.589C116.951 106.154 117.461 105.816 118.053 105.569C118.645 105.323 119.285 105.202 119.973 105.202C120.314 105.202 120.646 105.241 120.978 105.308C121.305 105.381 121.613 105.482 121.902 105.608C122.191 105.738 122.451 105.893 122.691 106.077C122.927 106.26 123.124 106.464 123.283 106.691L122.494 107.271C122.398 107.121 122.268 106.971 122.109 106.821C121.945 106.671 121.758 106.541 121.536 106.425C121.315 106.309 121.079 106.217 120.82 106.149C120.56 106.077 120.285 106.043 119.987 106.043C119.386 106.043 118.847 106.154 118.366 106.372C117.889 106.589 117.485 106.884 117.153 107.256C116.821 107.628 116.566 108.059 116.393 108.552C116.22 109.04 116.133 109.557 116.133 110.103C116.133 110.65 116.225 111.162 116.403 111.65C116.581 112.143 116.836 112.573 117.173 112.946C117.505 113.318 117.909 113.613 118.385 113.83C118.861 114.048 119.395 114.159 119.992 114.159C120.526 114.159 121.031 114.048 121.512 113.83C121.993 113.613 122.393 113.26 122.72 112.776L123.456 113.25L123.451 113.245Z" fill="#4E5C3C"/>
<path d="M126.675 113.917H131.645V114.763H125.727V105.434H131.486V106.28H126.67V109.48H131.169V110.326H126.67V113.922L126.675 113.917Z" fill="#4E5C3C"/>
<path d="M138.65 106.933C138.448 106.652 138.193 106.425 137.875 106.256C137.558 106.087 137.183 106 136.735 106C136.509 106 136.278 106.038 136.042 106.106C135.807 106.174 135.59 106.285 135.398 106.43C135.205 106.575 135.051 106.759 134.931 106.976C134.811 107.194 134.753 107.455 134.753 107.754C134.753 108.054 134.811 108.3 134.921 108.489C135.032 108.682 135.186 108.847 135.374 108.982C135.561 109.117 135.778 109.229 136.013 109.316C136.249 109.403 136.504 109.49 136.764 109.577C137.086 109.683 137.414 109.799 137.741 109.92C138.068 110.041 138.361 110.205 138.621 110.398C138.881 110.592 139.097 110.848 139.261 111.148C139.429 111.452 139.511 111.834 139.511 112.303C139.511 112.772 139.425 113.173 139.247 113.511C139.069 113.85 138.842 114.13 138.559 114.348C138.275 114.57 137.952 114.729 137.592 114.836C137.226 114.942 136.86 114.995 136.495 114.995C136.216 114.995 135.936 114.966 135.653 114.908C135.374 114.85 135.104 114.763 134.854 114.652C134.599 114.536 134.363 114.391 134.147 114.217C133.925 114.043 133.738 113.84 133.569 113.613L134.382 113.009C134.585 113.342 134.864 113.622 135.229 113.845C135.595 114.067 136.018 114.178 136.509 114.178C136.745 114.178 136.985 114.14 137.231 114.067C137.476 113.995 137.697 113.879 137.895 113.724C138.092 113.569 138.255 113.381 138.381 113.158C138.506 112.936 138.573 112.675 138.573 112.375C138.573 112.051 138.51 111.781 138.381 111.563C138.255 111.351 138.087 111.167 137.875 111.022C137.664 110.877 137.423 110.756 137.154 110.659C136.884 110.563 136.6 110.466 136.302 110.369C135.994 110.273 135.696 110.161 135.398 110.041C135.099 109.92 134.835 109.755 134.599 109.562C134.363 109.369 134.171 109.122 134.026 108.832C133.882 108.542 133.81 108.184 133.81 107.764C133.81 107.314 133.901 106.928 134.079 106.604C134.257 106.28 134.493 106.009 134.782 105.797C135.07 105.584 135.388 105.434 135.739 105.337C136.09 105.241 136.432 105.192 136.774 105.192C137.404 105.192 137.943 105.304 138.385 105.531C138.833 105.753 139.17 106.019 139.396 106.328L138.65 106.933Z" fill="#4E5C3C"/>
<path d="M99.9146 40.6375V31.0376L89.5657 27.2383V37.6357L99.9146 40.6375Z" fill="#4E5C3C"/>
<path d="M89.5898 53.9495L99.8907 55.2547V46.3992L89.5898 43.9968V53.9495Z" fill="#4E5C3C"/>
<path d="M125.621 68.6732C125.02 67.7645 123.923 66.8944 122.393 66.0678C123.778 64.202 124.769 59.2329 124.769 53.3744C124.769 45.9207 123.167 39.8834 121.19 39.8834C119.212 39.8834 117.61 45.9256 117.61 53.3744C117.61 58.0921 118.255 62.2347 119.227 64.6467C117.793 64.1005 116.157 63.5833 114.339 63.0951V31.6273C115.835 31.9125 116.884 29.8098 115.445 28.8237L113.824 27.7071L74.2756 0.212693C73.8811 -0.0628316 73.3663 -0.0724991 72.9622 0.18369L29.4398 27.7216L28.8817 28.0745L27.5586 28.8962C26.0142 29.8581 27.2315 32.2025 28.8817 31.5258V62.8969C27.0679 63.3609 25.4176 63.8588 23.955 64.3809C24.8403 61.9253 25.4176 57.981 25.4176 53.5194C25.4176 46.0657 23.8155 40.0284 21.8381 40.0284C19.8607 40.0284 18.2585 46.0706 18.2585 53.5194C18.2585 59.0589 19.1438 63.8105 20.414 65.889C18.706 66.7687 17.4839 67.7017 16.8392 68.6732C16.5409 69.1228 16.921 69.7125 17.4358 69.6158C28.8913 67.4358 48.704 65.9905 71.2349 65.9905C93.7659 65.9905 113.579 67.431 125.034 69.6158C125.549 69.7125 125.924 69.118 125.631 68.6732H125.621ZM105.265 27.2527C107.127 28.3307 108.445 30.124 108.609 32.1155L108.671 58.2178C108.613 60.2528 106.689 61.4419 104.379 61.0262H104.399C96.6623 59.7888 87.3189 58.967 77.1431 58.7399L77.071 13.143L105.265 27.2576V27.2527ZM69.8204 58.6722C65.6347 58.6964 61.5692 58.8172 57.6625 59.0251V43.3057L47.3328 45.4374V59.8178C43.8976 60.1707 40.6692 60.596 37.6766 61.0891C36.1274 61.0407 34.8909 60.2335 34.5349 58.9235L34.4724 32.2702C34.6937 30.2207 36.1274 28.4032 38.1096 27.3736L47.3376 23.2214V36.3982L57.6673 34.107V18.5761L69.7483 13.1382L69.8204 58.677V58.6722Z" fill="#4E5C3C"/>
</g>
<defs>
<clipPath id="clip0_561_714">
<rect width="144" height="115" fill="white"/>
</clipPath>
</defs>
</svg>
