<svg width="279" height="278" viewBox="0 0 279 278" fill="none" xmlns="http://www.w3.org/2000/svg">
<path d="M68.7584 144.904L29.591 245.827L85.512 224.12L123.088 270.879L139.659 163.78" fill="white"/>
<path fill-rule="evenodd" clip-rule="evenodd" d="M140.562 156.543C143.279 156.963 145.14 159.507 144.72 162.223L129.883 258.111C129.581 260.06 128.157 261.647 126.252 262.158C124.346 262.668 122.319 262.005 121.083 260.468L89.7246 221.445L43.056 239.56C41.217 240.274 39.1299 239.835 37.7349 238.44C36.3399 237.045 35.9002 234.958 36.614 233.119L71.6811 142.762C72.6757 140.199 75.5598 138.927 78.1228 139.922C80.6858 140.917 81.9572 143.801 80.9625 146.364L49.9814 226.192L89.5202 210.845C91.5434 210.06 93.8423 210.676 95.2018 212.367L121.771 245.43L134.881 160.701C135.301 157.984 137.845 156.122 140.562 156.543Z" fill="#4E5C3C"/>
<path d="M140.028 164.739L156.244 271.811L195.163 224.692L252.428 246.038L212.905 145.089" fill="white"/>
<path fill-rule="evenodd" clip-rule="evenodd" d="M203.564 140.093C206.124 139.09 209.011 140.353 210.014 142.913L245.399 233.294C246.115 235.123 245.689 237.201 244.313 238.6C242.936 240 240.865 240.459 239.025 239.774L191.075 221.899L158.487 261.354C157.236 262.868 155.213 263.505 153.321 262.981C151.429 262.457 150.021 260.87 149.727 258.929L135.209 163.066C134.797 160.348 136.667 157.811 139.385 157.399C142.103 156.987 144.641 158.857 145.052 161.575L157.903 246.427L185.656 212.827C187.007 211.192 189.245 210.592 191.233 211.333L232.069 226.556L200.743 146.543C199.741 143.983 201.004 141.095 203.564 140.093Z" fill="#4E5C3C"/>
<path d="M141 185C186.011 185 222.5 148.959 222.5 104.5C222.5 60.0411 186.011 24 141 24C95.9888 24 59.5 60.0411 59.5 104.5C59.5 148.959 95.9888 185 141 185Z" fill="white"/>
<path fill-rule="evenodd" clip-rule="evenodd" d="M141 28.9494C98.7314 28.9494 64.5133 62.8005 64.5133 104.5C64.5133 146.2 98.7314 180.051 141 180.051C183.269 180.051 217.487 146.2 217.487 104.5C217.487 62.8005 183.269 28.9494 141 28.9494ZM54.5 104.5C54.5 57.2537 93.2536 19 141 19C188.746 19 227.5 57.2537 227.5 104.5C227.5 151.746 188.746 190 141 190C93.2536 190 54.5 151.746 54.5 104.5Z" fill="#4E5C3C"/>
<path fill-rule="evenodd" clip-rule="evenodd" d="M189.047 74.4558C190.984 76.3968 190.984 79.5439 189.047 81.4849L126.657 144L99.9529 117.243C98.0157 115.302 98.0157 112.155 99.9529 110.214C101.89 108.273 105.031 108.273 106.968 110.214L126.657 129.942L182.032 74.4558C183.969 72.5147 187.11 72.5147 189.047 74.4558Z" fill="#4E5C3C"/>
</svg>
